# Blender v3.0.0 OBJ File: ''
# www.blender.org
mtllib sword.mtl
o Cube.001
v -2.815854 0.590290 0.600000
v -2.815854 0.700290 0.600000
v -2.815854 0.590290 -0.600000
v -2.815854 0.700290 -0.600000
v -2.615854 0.590290 0.600000
v -2.615854 0.700290 0.600000
v -2.615854 0.590290 -0.600000
v -2.615854 0.700290 -0.600000
v -2.936673 0.535290 -0.300000
v -3.006361 0.535290 0.000000
v -2.936673 0.535290 0.300000
v -2.936673 0.755290 0.300000
v -3.006361 0.755290 -0.000000
v -2.936673 0.755290 -0.300000
v -2.690033 0.535290 0.300000
v -2.559138 0.535290 0.000000
v -2.690033 0.535290 -0.300000
v -2.690033 0.755290 -0.300000
v -2.559138 0.755290 -0.000000
v -2.690033 0.755290 0.300000
v 1.637519 0.644989 -0.250000
v 0.097519 0.644989 -0.250000
v 1.637519 0.644989 0.250000
v 0.097519 0.644989 0.250000
v 1.637519 0.644989 -0.250000
v 0.097519 0.644989 -0.250000
v 1.637519 0.644989 0.250000
v 0.097519 0.644989 0.250000
v 0.097519 0.744989 -0.006758
v 1.637519 0.544989 -0.006758
v 1.637519 0.744989 -0.006758
v 0.097519 0.544989 -0.006758
v 1.637519 0.644989 0.250000
v 1.637519 0.644989 0.250000
v 1.637519 0.544989 -0.006758
v 1.637519 0.744989 -0.006758
v 1.637519 0.644989 -0.250000
v 1.637519 0.644989 -0.250000
v 1.637519 0.644989 0.250000
v 1.637519 0.644989 0.250000
v 1.637519 0.544989 -0.006758
v 1.637519 0.744989 -0.006758
v 1.637519 0.644989 -0.250000
v 1.637519 0.644989 -0.250000
v 2.066293 0.644989 0.017341
v 2.066293 0.644989 0.017341
v 2.066293 0.637222 -0.002603
v 2.066293 0.652756 -0.002603
v 2.066293 0.644989 -0.021496
v 2.066293 0.644989 -0.021496
v -1.764977 0.744989 -0.006758
v -1.764977 0.644989 0.250000
v -1.764977 0.644989 -0.250000
v -1.764977 0.644989 -0.250000
v -1.764977 0.644989 0.250000
v -1.764977 0.544989 -0.006758
v -2.726780 0.744989 -0.006758
v -2.726780 0.644989 0.250000
v -2.726780 0.644989 -0.250000
v -2.726780 0.644989 -0.250000
v -2.726780 0.644989 0.250000
v -2.726780 0.544989 -0.006758
v -3.778467 0.612132 0.154889
v -3.778467 0.681832 0.154889
v -3.778467 0.612132 -0.154889
v -3.778467 0.681832 -0.154889
v -2.922078 0.601157 0.200000
v -2.922078 0.691158 0.200000
v -2.922078 0.601157 -0.200000
v -2.922078 0.691157 -0.200000
v -3.778467 0.577282 0.000000
v -3.778467 0.716682 -0.000000
v -2.922078 0.556157 0.000000
v -2.922078 0.736157 -0.000000
v -3.972078 0.527586 0.000000
v -3.972078 0.594707 0.232334
v -3.972078 0.699257 0.232334
v -3.972078 0.751532 -0.000000
v -3.972078 0.699257 -0.232334
v -3.972078 0.594707 -0.232334
v -4.165689 0.594707 0.000000
v -4.165689 0.646982 0.116167
v -4.165689 0.646982 0.116167
v -4.165689 0.699257 -0.000000
v -4.165689 0.646982 -0.116167
v -4.165689 0.646982 -0.116167
vt 0.625000 0.128379
vt 0.625000 0.250000
vt 0.625000 0.250000
vt 0.625000 0.750000
vt 0.375000 1.000000
vt 0.375000 0.750000
vt 0.375000 0.250000
vt 0.375000 0.128379
vt 0.375000 0.500000
vt 0.375000 0.250000
vt 0.625000 0.621621
vt 0.375000 0.621621
vt 0.625000 0.500000
vt 0.375000 0.128379
vt 0.625000 0.000000
vt 0.375000 0.000000
vt 0.625000 0.621621
vt 0.625000 0.128379
vt 0.625000 0.250000
vt 0.625000 0.500000
vt 0.625000 0.621621
vt 0.625000 0.750000
vt 0.625000 1.000000
vt 0.625000 1.000000
vt 0.625000 0.128379
vt 0.625000 0.250000
vt 0.625000 0.500000
vt 0.625000 0.621621
vt 0.625000 1.000000
vt 0.625000 0.000000
vt 0.625000 0.128379
vt 0.625000 0.750000
vt 0.875000 0.621621
vt 0.625000 0.750000
vt 0.875000 0.500000
vt 0.625000 0.500000
vt 0.625000 1.000000
vt 0.625000 0.000000
vt 0.375000 0.000000
vt 0.375000 0.000000
vt 0.375000 1.000000
vt 0.375000 0.750000
vt 0.375000 0.750000
vt 0.375000 0.621621
vt 0.375000 0.500000
vt 0.375000 0.621621
vt 0.125000 0.750000
vt 0.125000 0.621621
vt 0.375000 0.500000
vt 0.125000 0.500000
vt 0.375000 0.250000
vt 0.375000 0.128379
vt 0.625000 0.625000
vt 0.375000 0.750000
vt 0.375000 0.625000
vt 0.375000 0.500000
vt 0.875000 0.750000
vt 0.625000 0.000000
vt 0.375000 1.000000
vt 0.625000 0.750000
vt 0.625000 0.500000
vt 0.625000 0.187500
vt 0.375000 0.250000
vt 0.375000 0.187500
vt 0.625000 0.250000
vt 0.375000 0.500000
vt 0.625000 0.687500
vt 0.375000 0.750000
vt 0.375000 0.687500
vt 0.625000 0.750000
vt 0.375000 1.000000
vt 0.125000 0.750000
vt 0.125000 0.687500
vt 0.875000 0.750000
vt 0.875000 0.500000
vt 0.625000 0.562500
vt 0.625000 0.500000
vt 0.875000 0.625000
vt 0.625000 0.625000
vt 0.125000 0.500000
vt 0.375000 0.562500
vt 0.125000 0.562500
vt 0.125000 0.625000
vt 0.375000 0.625000
vt 0.375000 0.000000
vt 0.625000 0.062500
vt 0.375000 0.062500
vt 0.375000 0.125000
vt 0.625000 0.125000
vt 0.875000 0.625000
vt 0.875000 0.500000
vt 0.875000 0.625000
vt 0.875000 0.750000
vt 0.875000 0.750000
vt 0.875000 0.625000
vt 0.125000 0.500000
vt 0.125000 0.625000
vt 0.125000 0.500000
vt 0.125000 0.625000
vt 0.125000 0.750000
vt 0.125000 0.625000
vt 0.375000 0.250000
vt 0.625000 0.250000
vt 0.625000 0.250000
vt 0.125000 0.500000
vt 0.375000 1.000000
vt 0.625000 1.000000
vt 0.375000 1.000000
vt 0.625000 0.125000
vt 0.375000 0.250000
vt 0.375000 0.125000
vt 0.375000 0.000000
vt 0.875000 0.750000
vt 0.625000 0.250000
vt 0.375000 1.000000
vt 0.625000 1.000000
vt 0.875000 0.687500
vt 0.875000 0.562500
vt 0.625000 0.000000
vt 0.875000 0.500000
vt 0.875000 0.500000
vt 0.125000 0.750000
vt 0.375000 0.250000
vt 0.625000 1.000000
vt 0.625000 0.000000
vt 0.125000 0.750000
vt 0.625000 1.000000
vn 0.0000 0.0000 1.0000
vn 0.0000 0.9249 -0.3802
vn -0.0000 -0.9318 0.3629
vn -0.0000 -0.9249 -0.3802
vn 0.0000 0.9318 0.3629
vn 0.1986 0.9065 -0.3727
vn 0.1986 -0.9065 -0.3727
vn 1.0000 -0.0000 0.0000
vn 0.4275 0.0000 0.9040
vn 1.0000 -0.0000 0.0001
vn 0.4448 -0.0000 0.8956
vn 0.1932 0.9143 0.3561
vn 0.1932 -0.9143 0.3561
vn -1.0000 0.0000 0.0001
vn -0.4275 0.0000 0.9040
vn -1.0000 0.0000 0.0000
vn -0.4448 0.0000 0.8956
vn -0.9276 -0.0000 -0.3736
vn 0.0000 0.0000 -1.0000
vn 0.9708 0.0000 -0.2400
vn 0.0000 -0.9836 0.1803
vn 0.0000 0.9836 0.1803
vn 0.0000 0.9836 -0.1803
vn 0.0000 1.0000 0.0000
vn 0.0000 -0.9836 -0.1803
vn 0.0000 -1.0000 0.0000
vn 0.9708 -0.0000 0.2400
vn 0.9166 -0.0000 -0.3999
vn 0.9166 0.0000 0.3999
vn -0.9276 0.0000 0.3736
vn -0.9741 -0.0000 0.2263
vn -0.9741 0.0000 -0.2263
vn 0.1730 0.9609 -0.2162
vn 0.1730 0.9609 0.2162
vn -0.3245 0.9064 -0.2704
vn -0.3454 0.8932 -0.2879
vn -0.2547 0.9434 -0.2123
vn -0.3618 -0.8822 -0.3015
vn -0.3759 -0.8721 -0.3133
vn -0.4418 -0.8181 -0.3681
vn 0.2108 -0.9459 0.2466
vn 0.2119 -0.9454 0.2475
vn 0.2394 -0.9328 0.2695
vn 0.3714 0.0000 -0.9285
vn 0.2108 -0.9459 -0.2466
vn 0.2119 -0.9454 -0.2475
vn 0.1730 -0.9609 -0.2162
vn 0.3714 -0.0000 0.9285
vn -1.0000 0.0000 0.0003
vn -0.4741 0.0000 0.8805
vn -0.3618 -0.8822 0.3015
vn -0.3759 -0.8721 0.3133
vn -0.3160 -0.9115 0.2633
vn -0.3245 0.9064 0.2704
vn -0.3454 0.8932 0.2879
vn -0.4418 0.8181 0.3681
vn -0.5147 0.0000 -0.8574
vn -0.1945 0.0000 0.9809
vn -0.5145 0.0000 0.8575
vn -0.1185 0.0000 0.9929
vn -0.4418 0.8181 -0.3681
vn -0.3160 -0.9115 -0.2633
vn 0.1730 -0.9609 0.2162
vn 0.2394 -0.9328 -0.2695
vn -0.4418 -0.8181 0.3681
vn -0.2547 0.9434 0.2123
vn -0.5145 0.0000 -0.8575
vn -0.0526 -0.0000 -0.9986
vn -0.0526 0.0000 0.9986
vn -0.0241 -0.9753 0.2194
vn -0.0222 0.9754 0.2195
vn -0.0222 0.9754 -0.2195
vn -0.0241 -0.9753 -0.2194
usemtl Material.001
s 1
f 31/1/1 37/2/1 25/3/1
f 23/4/1 28/5/1 24/6/1
f 31/1/2 26/7/2 29/8/2
f 22/9/1 54/10/1 26/7/1
f 30/11/3 24/6/3 32/12/3
f 25/3/1 22/9/1 26/7/1
f 21/13/4 32/12/4 22/9/4
f 26/7/2 51/14/2 29/8/2
f 27/15/5 29/8/5 28/16/5
f 21/13/1 35/17/1 30/11/1
f 36/18/1 43/19/1 37/2/1
f 38/20/1 41/21/1 35/17/1
f 30/11/1 33/22/1 23/4/1
f 27/15/1 36/18/1 31/1/1
f 25/3/1 38/20/1 21/13/1
f 23/4/1 34/23/1 27/24/1
f 43/19/6 48/25/6 49/26/6
f 44/27/7 47/28/7 41/21/7
f 33/22/1 40/29/1 34/23/1
f 34/30/1 42/31/1 36/18/1
f 37/2/1 44/27/1 38/20/1
f 35/17/1 39/32/1 33/22/1
f 48/33/8 45/34/9 47/28/10
f 49/35/11 47/28/10 50/36/1
f 39/32/1 46/37/1 40/29/1
f 40/38/12 48/25/12 42/31/12
f 43/19/1 50/36/1 44/27/1
f 39/32/13 47/28/13 45/34/13
f 51/14/5 58/39/5 52/40/5
f 52/41/1 61/42/1 55/43/1
f 28/5/1 55/43/1 24/6/1
f 24/6/3 56/44/3 32/12/3
f 29/8/5 52/40/5 28/16/5
f 32/12/4 53/45/4 22/9/4
f 62/46/14 58/47/15 57/48/16
f 59/49/17 57/48/16 60/50/1
f 55/43/3 62/46/3 56/44/3
f 56/44/4 59/49/4 53/45/4
f 53/45/1 60/51/1 54/10/1
f 54/10/2 57/52/2 51/14/2
f 74/53/8 67/54/8 73/55/8
f 69/56/8 74/53/8 73/55/8
f 31/1/1 36/18/1 37/2/1
f 23/4/1 27/24/1 28/5/1
f 31/1/2 25/3/2 26/7/2
f 22/9/1 53/45/1 54/10/1
f 30/11/3 23/4/3 24/6/3
f 25/3/1 21/13/1 22/9/1
f 21/13/4 30/11/4 32/12/4
f 26/7/2 54/10/2 51/14/2
f 27/15/5 31/1/5 29/8/5
f 21/13/1 38/20/1 35/17/1
f 36/18/1 42/31/1 43/19/1
f 38/20/1 44/27/1 41/21/1
f 30/11/1 35/17/1 33/22/1
f 27/15/1 34/30/1 36/18/1
f 25/3/1 37/2/1 38/20/1
f 23/4/1 33/22/1 34/23/1
f 43/19/6 42/31/6 48/25/6
f 44/27/7 50/36/7 47/28/7
f 33/22/1 39/32/1 40/29/1
f 34/30/1 40/38/1 42/31/1
f 37/2/1 43/19/1 44/27/1
f 35/17/1 41/21/1 39/32/1
f 48/33/8 46/57/1 45/34/9
f 49/35/11 48/33/8 47/28/10
f 39/32/1 45/34/1 46/37/1
f 40/38/12 46/58/12 48/25/12
f 43/19/1 49/26/1 50/36/1
f 39/32/13 41/21/13 47/28/13
f 51/14/5 57/52/5 58/39/5
f 52/41/1 58/59/1 61/42/1
f 28/5/1 52/41/1 55/43/1
f 24/6/3 55/43/3 56/44/3
f 29/8/5 51/14/5 52/40/5
f 32/12/4 56/44/4 53/45/4
f 62/46/14 61/42/1 58/47/15
f 59/49/17 62/46/14 57/48/16
f 55/43/3 61/42/3 62/46/3
f 56/44/4 62/46/4 59/49/4
f 53/45/1 59/49/1 60/51/1
f 54/10/2 60/51/2 57/52/2
f 74/53/8 68/60/8 67/54/8
f 69/56/8 70/61/8 74/53/8
usemtl Material.002
f 14/62/18 3/63/18 9/64/18
f 4/65/19 7/66/19 3/63/19
f 20/67/20 5/68/20 15/69/20
f 6/70/1 1/71/1 5/68/1
f 15/69/21 1/72/21 11/73/21
f 20/67/22 2/74/22 6/70/22
f 4/75/23 18/76/23 8/77/23
f 18/76/24 13/78/24 19/79/24
f 13/78/24 20/67/24 19/79/24
f 3/80/25 17/81/25 9/82/25
f 17/81/26 10/83/26 9/82/26
f 10/83/26 15/69/26 11/73/26
f 7/66/27 18/76/27 17/81/27
f 18/76/28 16/84/28 17/81/28
f 19/79/29 15/69/29 16/84/29
f 1/85/30 12/86/30 11/87/30
f 12/86/31 10/88/31 11/87/31
f 13/89/32 9/64/32 10/88/32
f 72/90/33 79/91/33 78/92/33
f 72/90/34 77/93/34 64/94/34
f 79/91/35 84/95/36 78/92/37
f 80/96/38 81/97/39 86/98/40
f 71/99/41 76/100/42 75/101/43
f 65/102/44 79/103/44 66/104/44
f 71/99/45 80/96/46 65/105/47
f 63/106/48 77/107/48 76/108/48
f 84/109/49 86/110/50 81/111/16
f 82/112/50 84/109/49 81/111/16
f 76/100/51 81/97/52 75/101/53
f 77/93/54 84/95/55 83/113/56
f 79/103/57 86/110/58 85/114/1
f 77/107/59 82/115/60 76/108/59
f 14/62/18 4/65/18 3/63/18
f 4/65/19 8/77/19 7/66/19
f 20/67/20 6/70/20 5/68/20
f 6/70/1 2/116/1 1/71/1
f 15/69/21 5/68/21 1/72/21
f 20/67/22 12/117/22 2/74/22
f 4/75/23 14/118/23 18/76/23
f 18/76/24 14/118/24 13/78/24
f 13/78/24 12/117/24 20/67/24
f 3/80/25 7/66/25 17/81/25
f 17/81/26 16/84/26 10/83/26
f 10/83/26 16/84/26 15/69/26
f 7/66/27 8/77/27 18/76/27
f 18/76/28 19/79/28 16/84/28
f 19/79/29 20/67/29 15/69/29
f 1/85/30 2/119/30 12/86/30
f 12/86/31 13/89/31 10/88/31
f 13/89/32 14/62/32 9/64/32
f 72/90/33 66/120/33 79/91/33
f 72/90/34 78/92/34 77/93/34
f 79/91/35 85/121/61 84/95/36
f 80/96/38 75/101/62 81/97/39
f 71/99/41 63/122/63 76/100/42
f 65/102/44 80/123/44 79/103/44
f 71/99/45 75/101/64 80/96/46
f 63/106/48 64/124/48 77/107/48
f 84/109/49 85/114/1 86/110/50
f 82/112/50 83/125/1 84/109/49
f 76/100/51 82/126/65 81/97/52
f 77/93/54 78/92/66 84/95/55
f 79/103/57 80/123/67 86/110/58
f 77/107/59 83/127/1 82/115/60
usemtl Material.003
f 65/102/68 70/61/68 69/56/68
f 68/60/69 63/106/69 67/54/69
f 71/99/70 67/54/70 63/122/70
f 72/90/71 68/60/71 74/53/71
f 70/61/72 72/90/72 74/53/72
f 69/56/73 71/99/73 65/105/73
f 65/102/68 66/104/68 70/61/68
f 68/60/69 64/124/69 63/106/69
f 71/99/70 73/55/70 67/54/70
f 72/90/71 64/94/71 68/60/71
f 70/61/72 66/120/72 72/90/72
f 69/56/73 73/55/73 71/99/73
